<mxfile host="Electron" agent="Mozilla/5.0 (Windows NT 10.0; Win64; x64) AppleWebKit/537.36 (KHTML, like Gecko) draw.io/26.2.15 Chrome/134.0.6998.205 Electron/35.2.1 Safari/537.36" version="26.2.15">
  <diagram name="Page-1" id="uv8fcUaL_EXrefL-b00M">
    <mxGraphModel dx="1426" dy="841" grid="1" gridSize="10" guides="1" tooltips="1" connect="1" arrows="1" fold="1" page="1" pageScale="1" pageWidth="1169" pageHeight="827" math="0" shadow="0">
      <root>
        <mxCell id="0" />
        <mxCell id="1" parent="0" />
        <mxCell id="sf2ZjY5zch2tFRvTPT-e-34" value="" style="endArrow=none;dashed=1;html=1;rounded=0;strokeWidth=2;" parent="1" source="sf2ZjY5zch2tFRvTPT-e-32" edge="1">
          <mxGeometry width="50" height="50" relative="1" as="geometry">
            <mxPoint x="339.53" y="600.31" as="sourcePoint" />
            <mxPoint x="339.9" y="80.94" as="targetPoint" />
          </mxGeometry>
        </mxCell>
        <mxCell id="sf2ZjY5zch2tFRvTPT-e-36" value="" style="endArrow=none;dashed=1;html=1;rounded=0;strokeWidth=2;" parent="1" edge="1">
          <mxGeometry width="50" height="50" relative="1" as="geometry">
            <mxPoint x="200" y="720" as="sourcePoint" />
            <mxPoint x="200.51999999999998" y="80.94" as="targetPoint" />
          </mxGeometry>
        </mxCell>
        <mxCell id="sf2ZjY5zch2tFRvTPT-e-4" value="" style="endArrow=none;dashed=1;html=1;rounded=0;strokeWidth=2;" parent="1" source="sf2ZjY5zch2tFRvTPT-e-20" edge="1">
          <mxGeometry width="50" height="50" relative="1" as="geometry">
            <mxPoint x="472.03" y="443.44000000000005" as="sourcePoint" />
            <mxPoint x="472.03" y="83.44" as="targetPoint" />
          </mxGeometry>
        </mxCell>
        <mxCell id="sf2ZjY5zch2tFRvTPT-e-5" value="&lt;font style=&quot;font-size: 16px;&quot;&gt;&lt;b&gt;inicializace&lt;/b&gt;&lt;/font&gt;" style="text;html=1;align=center;verticalAlign=middle;whiteSpace=wrap;rounded=0;" parent="1" vertex="1">
          <mxGeometry x="160" y="40" width="80" height="30" as="geometry" />
        </mxCell>
        <mxCell id="sf2ZjY5zch2tFRvTPT-e-6" value="" style="rounded=0;whiteSpace=wrap;html=1;rotation=90;fillColor=#fff2cc;strokeColor=#000000;strokeWidth=2;" parent="1" vertex="1">
          <mxGeometry x="186.57" y="83.44" width="28.12" height="21.25" as="geometry" />
        </mxCell>
        <mxCell id="sf2ZjY5zch2tFRvTPT-e-10" value="" style="endArrow=none;dashed=1;html=1;rounded=0;strokeWidth=2;" parent="1" source="sf2ZjY5zch2tFRvTPT-e-27" edge="1">
          <mxGeometry width="50" height="50" relative="1" as="geometry">
            <mxPoint x="615.03" y="600" as="sourcePoint" />
            <mxPoint x="615.4" y="80.63" as="targetPoint" />
          </mxGeometry>
        </mxCell>
        <mxCell id="sf2ZjY5zch2tFRvTPT-e-13" value="" style="rounded=0;whiteSpace=wrap;html=1;rotation=90;fillColor=#ffe6cc;strokeColor=#000000;strokeWidth=2;" parent="1" vertex="1">
          <mxGeometry x="310.61" y="130" width="58.77" height="21.25" as="geometry" />
        </mxCell>
        <mxCell id="sf2ZjY5zch2tFRvTPT-e-17" value="&lt;font style=&quot;font-size: 16px;&quot;&gt;&lt;b&gt;record_task&lt;/b&gt;&lt;/font&gt;" style="text;html=1;align=center;verticalAlign=middle;whiteSpace=wrap;rounded=0;" parent="1" vertex="1">
          <mxGeometry x="300" y="40" width="80" height="30" as="geometry" />
        </mxCell>
        <mxCell id="sf2ZjY5zch2tFRvTPT-e-18" value="&lt;font style=&quot;font-size: 16px;&quot;&gt;&lt;b&gt;msc_task&lt;/b&gt;&lt;/font&gt;" style="text;html=1;align=center;verticalAlign=middle;whiteSpace=wrap;rounded=0;" parent="1" vertex="1">
          <mxGeometry x="432.66" y="40" width="80" height="30" as="geometry" />
        </mxCell>
        <mxCell id="sf2ZjY5zch2tFRvTPT-e-21" value="" style="endArrow=none;dashed=1;html=1;rounded=0;strokeWidth=2;" parent="1" source="sf2ZjY5zch2tFRvTPT-e-39" target="sf2ZjY5zch2tFRvTPT-e-20" edge="1">
          <mxGeometry width="50" height="50" relative="1" as="geometry">
            <mxPoint x="472.03" y="600" as="sourcePoint" />
            <mxPoint x="472.03" y="83.44" as="targetPoint" />
          </mxGeometry>
        </mxCell>
        <mxCell id="sf2ZjY5zch2tFRvTPT-e-20" value="" style="rounded=0;whiteSpace=wrap;html=1;rotation=90;fillColor=#dae8fc;strokeColor=#000000;strokeWidth=2;" parent="1" vertex="1">
          <mxGeometry x="458.9" y="180" width="27.5" height="21.25" as="geometry" />
        </mxCell>
        <mxCell id="sf2ZjY5zch2tFRvTPT-e-25" value="" style="rounded=0;whiteSpace=wrap;html=1;rotation=90;fillColor=#ffe6cc;strokeColor=#000000;strokeWidth=2;" parent="1" vertex="1">
          <mxGeometry x="311.23" y="230" width="58.77" height="21.25" as="geometry" />
        </mxCell>
        <mxCell id="sf2ZjY5zch2tFRvTPT-e-28" value="&lt;font style=&quot;font-size: 16px;&quot;&gt;&lt;b&gt;USB1_HS&lt;/b&gt;&lt;/font&gt;&lt;div&gt;&lt;font style=&quot;font-size: 16px;&quot;&gt;&lt;b&gt;přerušení&lt;/b&gt;&lt;/font&gt;&lt;/div&gt;" style="text;html=1;align=center;verticalAlign=middle;whiteSpace=wrap;rounded=0;" parent="1" vertex="1">
          <mxGeometry x="570" y="30" width="90" height="40" as="geometry" />
        </mxCell>
        <mxCell id="sf2ZjY5zch2tFRvTPT-e-29" value="&lt;font style=&quot;font-size: 16px;&quot;&gt;&lt;b&gt;připojení USB&lt;/b&gt;&lt;/font&gt;" style="text;html=1;align=center;verticalAlign=middle;whiteSpace=wrap;rounded=0;" parent="1" vertex="1">
          <mxGeometry x="693" y="257.81" width="127" height="45.62" as="geometry" />
        </mxCell>
        <mxCell id="sf2ZjY5zch2tFRvTPT-e-31" value="" style="rounded=0;whiteSpace=wrap;html=1;rotation=90;strokeWidth=2;fillColor=#dae8fc;strokeColor=#000000;" parent="1" vertex="1">
          <mxGeometry x="443.27" y="310" width="58.77" height="21.25" as="geometry" />
        </mxCell>
        <mxCell id="sf2ZjY5zch2tFRvTPT-e-38" value="" style="endArrow=none;dashed=1;html=1;rounded=0;strokeWidth=2;" parent="1" target="sf2ZjY5zch2tFRvTPT-e-37" edge="1">
          <mxGeometry width="50" height="50" relative="1" as="geometry">
            <mxPoint x="615" y="720" as="sourcePoint" />
            <mxPoint x="615.4" y="80.63" as="targetPoint" />
          </mxGeometry>
        </mxCell>
        <mxCell id="sf2ZjY5zch2tFRvTPT-e-37" value="" style="rounded=0;whiteSpace=wrap;html=1;rotation=90;fillColor=#f8cecc;strokeColor=#000000;strokeWidth=2;" parent="1" vertex="1">
          <mxGeometry x="610.78" y="374.37" width="10" height="21.25" as="geometry" />
        </mxCell>
        <mxCell id="sf2ZjY5zch2tFRvTPT-e-40" value="" style="endArrow=none;dashed=1;html=1;rounded=0;strokeWidth=2;" parent="1" source="683e4Ucs5K7a3aQ0DpeV-1" target="sf2ZjY5zch2tFRvTPT-e-39" edge="1">
          <mxGeometry width="50" height="50" relative="1" as="geometry">
            <mxPoint x="470" y="720" as="sourcePoint" />
            <mxPoint x="472.03" y="218" as="targetPoint" />
          </mxGeometry>
        </mxCell>
        <mxCell id="sf2ZjY5zch2tFRvTPT-e-39" value="" style="rounded=0;whiteSpace=wrap;html=1;rotation=90;fillColor=#dae8fc;strokeColor=#000000;strokeWidth=2;" parent="1" vertex="1">
          <mxGeometry x="443.27" y="410" width="58.77" height="21.25" as="geometry" />
        </mxCell>
        <mxCell id="sf2ZjY5zch2tFRvTPT-e-42" value="" style="endArrow=none;dashed=1;html=1;rounded=0;strokeWidth=2;" parent="1" source="683e4Ucs5K7a3aQ0DpeV-3" target="sf2ZjY5zch2tFRvTPT-e-41" edge="1">
          <mxGeometry width="50" height="50" relative="1" as="geometry">
            <mxPoint x="340" y="720" as="sourcePoint" />
            <mxPoint x="339.9" y="80.94" as="targetPoint" />
          </mxGeometry>
        </mxCell>
        <mxCell id="sf2ZjY5zch2tFRvTPT-e-41" value="" style="rounded=0;whiteSpace=wrap;html=1;rotation=90;fillColor=#ffe6cc;strokeColor=#000000;strokeWidth=2;" parent="1" vertex="1">
          <mxGeometry x="326.86" y="450" width="27.5" height="21.25" as="geometry" />
        </mxCell>
        <mxCell id="sf2ZjY5zch2tFRvTPT-e-44" value="" style="endArrow=none;dashed=1;html=1;rounded=0;strokeWidth=2;" parent="1" source="sf2ZjY5zch2tFRvTPT-e-37" target="sf2ZjY5zch2tFRvTPT-e-27" edge="1">
          <mxGeometry width="50" height="50" relative="1" as="geometry">
            <mxPoint x="616" y="406" as="sourcePoint" />
            <mxPoint x="615.4" y="80.63" as="targetPoint" />
          </mxGeometry>
        </mxCell>
        <mxCell id="sf2ZjY5zch2tFRvTPT-e-27" value="" style="rounded=0;whiteSpace=wrap;html=1;rotation=90;fillColor=#f8cecc;strokeColor=#000000;strokeWidth=2;" parent="1" vertex="1">
          <mxGeometry x="610.78" y="270" width="10" height="21.25" as="geometry" />
        </mxCell>
        <mxCell id="sf2ZjY5zch2tFRvTPT-e-45" value="" style="endArrow=none;dashed=1;html=1;rounded=0;strokeWidth=2;" parent="1" source="sf2ZjY5zch2tFRvTPT-e-41" target="sf2ZjY5zch2tFRvTPT-e-32" edge="1">
          <mxGeometry width="50" height="50" relative="1" as="geometry">
            <mxPoint x="339" y="467" as="sourcePoint" />
            <mxPoint x="339.9" y="80.94" as="targetPoint" />
          </mxGeometry>
        </mxCell>
        <mxCell id="sf2ZjY5zch2tFRvTPT-e-32" value="" style="rounded=0;whiteSpace=wrap;html=1;rotation=90;fillColor=#ffe6cc;strokeColor=#000000;strokeWidth=2;" parent="1" vertex="1">
          <mxGeometry x="325.63" y="350" width="27.5" height="21.25" as="geometry" />
        </mxCell>
        <mxCell id="sf2ZjY5zch2tFRvTPT-e-46" value="" style="rounded=0;whiteSpace=wrap;html=1;rotation=90;fillColor=#f8cecc;strokeColor=#000000;strokeWidth=2;" parent="1" vertex="1">
          <mxGeometry x="610.78" y="471.25" width="10" height="21.25" as="geometry" />
        </mxCell>
        <mxCell id="683e4Ucs5K7a3aQ0DpeV-2" value="" style="rounded=0;whiteSpace=wrap;html=1;rotation=90;fillColor=#dae8fc;strokeColor=#000000;strokeWidth=2;" vertex="1" parent="1">
          <mxGeometry x="443.27" y="510" width="58.77" height="21.25" as="geometry" />
        </mxCell>
        <mxCell id="683e4Ucs5K7a3aQ0DpeV-4" value="" style="endArrow=none;dashed=1;html=1;rounded=0;strokeWidth=2;" edge="1" parent="1" source="683e4Ucs5K7a3aQ0DpeV-6" target="683e4Ucs5K7a3aQ0DpeV-3">
          <mxGeometry width="50" height="50" relative="1" as="geometry">
            <mxPoint x="340" y="720" as="sourcePoint" />
            <mxPoint x="341" y="474" as="targetPoint" />
          </mxGeometry>
        </mxCell>
        <mxCell id="683e4Ucs5K7a3aQ0DpeV-3" value="" style="rounded=0;whiteSpace=wrap;html=1;rotation=90;fillColor=#ffe6cc;strokeColor=#000000;strokeWidth=2;" vertex="1" parent="1">
          <mxGeometry x="309.99" y="570" width="58.77" height="21.25" as="geometry" />
        </mxCell>
        <mxCell id="683e4Ucs5K7a3aQ0DpeV-5" value="" style="endArrow=none;dashed=1;html=1;rounded=0;strokeWidth=2;" edge="1" parent="1" target="683e4Ucs5K7a3aQ0DpeV-1">
          <mxGeometry width="50" height="50" relative="1" as="geometry">
            <mxPoint x="470" y="720" as="sourcePoint" />
            <mxPoint x="472" y="450" as="targetPoint" />
          </mxGeometry>
        </mxCell>
        <mxCell id="683e4Ucs5K7a3aQ0DpeV-1" value="" style="rounded=0;whiteSpace=wrap;html=1;rotation=90;fillColor=#dae8fc;strokeColor=#000000;strokeWidth=2;" vertex="1" parent="1">
          <mxGeometry x="458.9" y="620" width="26.73" height="21.25" as="geometry" />
        </mxCell>
        <mxCell id="683e4Ucs5K7a3aQ0DpeV-7" value="" style="endArrow=none;dashed=1;html=1;rounded=0;strokeWidth=2;" edge="1" parent="1" target="683e4Ucs5K7a3aQ0DpeV-6">
          <mxGeometry width="50" height="50" relative="1" as="geometry">
            <mxPoint x="340" y="720" as="sourcePoint" />
            <mxPoint x="340" y="610" as="targetPoint" />
          </mxGeometry>
        </mxCell>
        <mxCell id="683e4Ucs5K7a3aQ0DpeV-6" value="" style="rounded=0;whiteSpace=wrap;html=1;rotation=90;fillColor=#ffe6cc;strokeColor=#000000;strokeWidth=2;" vertex="1" parent="1">
          <mxGeometry x="309.99" y="660" width="58.77" height="21.25" as="geometry" />
        </mxCell>
        <mxCell id="683e4Ucs5K7a3aQ0DpeV-8" value="&lt;font style=&quot;font-size: 16px;&quot;&gt;&lt;b&gt;odpojení USB&lt;/b&gt;&lt;/font&gt;" style="text;html=1;align=center;verticalAlign=middle;whiteSpace=wrap;rounded=0;" vertex="1" parent="1">
          <mxGeometry x="693" y="528" width="127" height="45.62" as="geometry" />
        </mxCell>
        <mxCell id="683e4Ucs5K7a3aQ0DpeV-9" value="" style="endArrow=classic;html=1;rounded=0;exitX=0;exitY=0.5;exitDx=0;exitDy=0;fillColor=#f8cecc;strokeColor=#b85450;strokeWidth=3;" edge="1" parent="1" source="683e4Ucs5K7a3aQ0DpeV-8">
          <mxGeometry width="50" height="50" relative="1" as="geometry">
            <mxPoint x="550" y="450" as="sourcePoint" />
            <mxPoint x="490" y="550" as="targetPoint" />
          </mxGeometry>
        </mxCell>
        <mxCell id="683e4Ucs5K7a3aQ0DpeV-10" value="" style="endArrow=classic;html=1;rounded=0;exitX=0;exitY=0.5;exitDx=0;exitDy=0;fillColor=#f8cecc;strokeColor=#b85450;strokeWidth=3;" edge="1" parent="1" source="sf2ZjY5zch2tFRvTPT-e-29">
          <mxGeometry width="50" height="50" relative="1" as="geometry">
            <mxPoint x="683" y="279" as="sourcePoint" />
            <mxPoint x="631" y="281" as="targetPoint" />
          </mxGeometry>
        </mxCell>
      </root>
    </mxGraphModel>
  </diagram>
</mxfile>
